  0
SECTION
  2
HEADER
  9
$ACADVER
  1
AC1009
  9
$INSBASE
 10
0.0
 20
0.0
 30
0.0
  9
$EXTMIN
 10
0.0
 20
0.0
 30
0.0
  9
$EXTMAX
 10
0.0
 20
0.0
 30
0.0
  0
ENDSEC
  0
SECTION
  2
TABLES
  0
TABLE
  2
VPORT
 70
0
  0
ENDTAB
  0
TABLE
  2
LTYPE
 70
1
  0
LTYPE
  2
CONTINUOUS
 70
0
  3
Solid line
 72
65
 73
0
 40
0.0
  0
ENDTAB
  0
TABLE
  2
LAYER
 70
1
  0
LAYER
  2
0
 70
64
 62
7
  6
continuous
  0
ENDTAB
  0
TABLE
  2
STYLE
 70
1
  0
STYLE
  2
STANDARD
 70
0
 40
0
 41
1.0
 50
0.0
 71
0
 42
1
 3
ARIAL.TTF
 4

  0
ENDTAB
  0
TABLE
  2
VIEW
 70
0
  0
ENDTAB
  0
ENDSEC
  0
SECTION
  2
BLOCKS
  0
BLOCK
  8
0
  2
SKETCH
 70
0
 10
0.0
 20
0.0
 30
0.0
  3
SKETCH
  0
POLYLINE
  8
0
 62
7
 70
0
 66
1
 10
0.0
 20
0.0
 30
0.0
  0
VERTEX
  8
0
 10
56.27414859741514
 20
-57.96020194498969
 30
0.0
 42
0.11875577586770598
  0
VERTEX
  8
0
 10
57.79028502425713
 20
-55.31982426594576
 30
0.0
 42
0.12841907998041216
  0
VERTEX
  8
0
 10
77.45966692414834
 20
-20.000000000000014
 30
0.0
  0
VERTEX
  8
0
 10
50.0
 20
-20.0
 30
0.0
  0
VERTEX
  8
0
 10
50.0
 20
20.0
 30
0.0
  0
VERTEX
  8
0
 10
77.45966692414835
 20
20.0
 30
0.0
 42
0.12841907998041222
  0
VERTEX
  8
0
 10
57.790285024257145
 20
55.31982426594577
 30
0.0
 42
0.11875577586770636
  0
VERTEX
  8
0
 10
56.27414859741514
 20
57.96020194498969
 30
0.0
  0
SEQEND
  8
0
  0
POLYLINE
  8
0
 62
7
 70
0
 66
1
 10
0.0
 20
0.0
 30
0.0
  0
VERTEX
  8
0
 10
56.26338615382591
 20
57.97155157537784
 30
0.0
  0
VERTEX
  8
0
 10
130.0
 20
130.0
 30
0.0
  0
VERTEX
  8
0
 10
310.0
 20
130.0
 30
0.0
  0
VERTEX
  8
0
 10
310.0
 20
-130.0
 30
0.0
  0
VERTEX
  8
0
 10
130.0
 20
-130.0
 30
0.0
  0
VERTEX
  8
0
 10
56.27631499844799
 20
-57.95791072235046
 30
0.0
  0
SEQEND
  8
0
  0
POLYLINE
  8
0
 62
7
 70
0
 66
1
 10
0.0
 20
0.0
 30
0.0
  0
VERTEX
  8
0
 10
130.0
 20
-37.5
 30
0.0
  0
VERTEX
  8
0
 10
129.99999999999108
 20
-12.5
 30
0.0
  0
VERTEX
  8
0
 10
229.99999999999997
 20
-12.5
 30
0.0
  0
VERTEX
  8
0
 10
229.99999999999997
 20
-37.5
 30
0.0
  0
SEQEND
  8
0
  0
CIRCLE
  8
0
 62
7
 10
68.5
 20
0.0
 30
0.0
 40
1.5
  0
CIRCLE
  8
0
 62
7
 10
68.5
 20
6.5
 30
0.0
 40
1.5
  0
CIRCLE
  8
0
 62
7
 10
68.5
 20
-6.5
 30
0.0
 40
1.5
  0
CIRCLE
  8
0
 62
7
 10
75.5
 20
0.0
 30
0.0
 40
1.5
  0
POLYLINE
  8
0
 62
7
 70
0
 66
1
 10
0.0
 20
0.0
 30
0.0
  0
VERTEX
  8
0
 10
154.99999999999957
 20
37.5
 30
0.0
  0
VERTEX
  8
0
 10
154.99999999999957
 20
12.5
 30
0.0
  0
SEQEND
  8
0
  0
POLYLINE
  8
0
 62
7
 70
0
 66
1
 10
0.0
 20
0.0
 30
0.0
  0
VERTEX
  8
0
 10
180.0000000435918
 20
37.5
 30
0.0
  0
VERTEX
  8
0
 10
179.99998862030031
 20
12.5
 30
0.0
  0
SEQEND
  8
0
  0
POLYLINE
  8
0
 62
7
 70
0
 66
1
 10
0.0
 20
0.0
 30
0.0
  0
VERTEX
  8
0
 10
204.99999999998923
 20
37.5
 30
0.0
  0
VERTEX
  8
0
 10
204.99999999998923
 20
12.5
 30
0.0
  0
SEQEND
  8
0
  0
POLYLINE
  8
0
 62
7
 70
0
 66
1
 10
0.0
 20
0.0
 30
0.0
  0
VERTEX
  8
0
 10
154.99999999999957
 20
-12.499999999999996
 30
0.0
  0
VERTEX
  8
0
 10
154.99999999999957
 20
-37.5
 30
0.0
  0
SEQEND
  8
0
  0
POLYLINE
  8
0
 62
7
 70
0
 66
1
 10
0.0
 20
0.0
 30
0.0
  0
VERTEX
  8
0
 10
179.99997719700877
 20
-12.5
 30
0.0
  0
VERTEX
  8
0
 10
179.9999657737173
 20
-37.5
 30
0.0
  0
SEQEND
  8
0
  0
POLYLINE
  8
0
 62
7
 70
0
 66
1
 10
0.0
 20
0.0
 30
0.0
  0
VERTEX
  8
0
 10
204.99999999998923
 20
-12.499999999999996
 30
0.0
  0
VERTEX
  8
0
 10
204.99999999998923
 20
-37.5
 30
0.0
  0
SEQEND
  8
0
  0
LINE
  8
0
 62
7
 10
56.27631499844799
 20
-57.95791072235046
 30
0.0
 11
130.0
 21
-130.0
 31
0.0
  0
LINE
  8
0
 62
7
 10
129.99999999999108
 20
-12.5
 30
0.0
 11
130.0
 21
-37.5
 31
0.0
  0
LINE
  8
0
 62
7
 10
129.99999999999108
 20
-12.5
 30
0.0
 11
129.99999999999108
 21
12.5
 31
0.0
  0
LINE
  8
0
 62
7
 10
129.99999999999108
 20
12.5
 30
0.0
 11
130.0
 21
37.5
 31
0.0
  0
LINE
  8
0
 62
7
 10
129.99999999999108
 20
12.5
 30
0.0
 11
230.0
 21
12.5
 31
0.0
  0
LINE
  8
0
 62
7
 10
230.0
 20
37.5
 30
0.0
 11
230.0
 21
12.5
 31
0.0
  0
ENDBLK
  0
ENDSEC
  0
SECTION
  2
ENTITIES
  0
INSERT
  2
SKETCH
  8
0
 62
7
 10
0.0
 20
0.0
 30
0.0
  0
ENDSEC
  0
EOF
